<svg xmlns="http://www.w3.org/2000/svg" data-name="Layer 1" viewBox="0 0 100 100" x="0px" y="0px"><title>5</title><g><path d="M88.8,32a7.3,7.3,0,0,0-7.3-7.2H64.2V18.9a7.3,7.3,0,0,0-7.3-7.2H18.5a7.3,7.3,0,0,0-7.3,7.2V81.1a7.3,7.3,0,0,0,7.3,7.2h63a7.3,7.3,0,0,0,7.3-7.2Zm-4,0v1.8H53V32a3.2,3.2,0,0,1,3.3-3.2H81.5A3.2,3.2,0,0,1,84.8,32ZM49,32V70H15.2V27H51A7.5,7.5,0,0,0,49,32Zm4,5.8H84.8V70.1H53ZM18.5,15.7H56.9a3.2,3.2,0,0,1,3.3,3.2V23h-45V18.9A3.2,3.2,0,0,1,18.5,15.7ZM15.2,81.1V74H49v7.1a7.2,7.2,0,0,0,.8,3.2H18.5A3.2,3.2,0,0,1,15.2,81.1Zm66.3,3.2H56.3A3.2,3.2,0,0,1,53,81.1v-7H84.8v7A3.2,3.2,0,0,1,81.5,84.3Z"/><rect x="63.6" y="77.2" width="10.7" height="4"/></g></svg>